<?xml version="1.0" encoding="utf-8"?>
<!-- Generator: Adobe Illustrator 24.0.1, SVG Export Plug-In . SVG Version: 6.00 Build 0)  -->
<svg version="1.1" id="Layer_1" xmlns="http://www.w3.org/2000/svg" xmlns:xlink="http://www.w3.org/1999/xlink" x="0px" y="0px"
	 viewBox="0 0 620.91 150.23" style="enable-background:new 0 0 620.91 150.23;" xml:space="preserve">
<style type="text/css">
	.st0{fill:#3F4140;}
	.st1{font-family:'TwCenMT-BoldItalic';}
	.st2{font-size:96px;}
	.st3{letter-spacing:-1;}
	.st4{letter-spacing:-2;}
	.st5{fill:#FE634D;}
	.st6{fill:#FE324D;}
	.st7{fill:#FF0066;}
	.st8{fill:#FEAF50;}
	.st9{fill:#FE7B4D;}
</style>
<text transform="matrix(1 0 0 1 1.7272 108.7815)"><tspan x="0" y="0" class="st0 st1 st2 st3">Spa</tspan><tspan x="127.18" y="0" class="st0 st1 st2 st4">r</tspan><tspan x="155.21" y="0" class="st0 st1 st2 st3">kitect</tspan><tspan x="345.49" y="0" class="st0 st1 st2">u</tspan><tspan x="390.61" y="0" class="st0 st1 st2 st4">r</tspan><tspan x="418.64" y="0" class="st0 st1 st2">e</tspan></text>
<path class="st5" d="M518.26,65.44c28.09,35.89-41.74,72.3-47.07-27.18C560-6.85,563.39,71.83,518.26,65.44z"/>
<path class="st6" d="M523.51,96.11c20.02-40.95-55.86-62.04-40.39,36.37C579.37,158.15,566.33,80.49,523.51,96.11z"/>
<path class="st7" d="M553.12,100.57c-32.76-31.69-76.26,33.95,22.11,49.65C629.38,66.62,551.49,55.03,553.12,100.57z"/>
<path class="st8" d="M566.86,75.03c-43.82-12.52-8.73-83.02,54.05-5.68C575.59,158.06,526.6,96.39,566.86,75.03z"/>
<path class="st9" d="M546.27,53.16C520.82,90.97,464.61,35.81,557.57,0C627.93,70.52,554.15,98.06,546.27,53.16z"/>
</svg>
